<?xml version="1.0" encoding="utf-8" standalone="no"?>
<!DOCTYPE svg PUBLIC "-//W3C//DTD SVG 1.1//EN"
  "http://www.w3.org/Graphics/SVG/1.1/DTD/svg11.dtd">
<!-- Created with matplotlib (https://matplotlib.org/) -->
<svg height="576pt" version="1.1" viewBox="0 0 864 576" width="864pt" xmlns="http://www.w3.org/2000/svg" xmlns:xlink="http://www.w3.org/1999/xlink">
 <metadata>
  <rdf:RDF xmlns:cc="http://creativecommons.org/ns#" xmlns:dc="http://purl.org/dc/elements/1.1/" xmlns:rdf="http://www.w3.org/1999/02/22-rdf-syntax-ns#">
   <cc:Work>
    <dc:type rdf:resource="http://purl.org/dc/dcmitype/StillImage"/>
    <dc:date>2023-12-10T15:42:21.786856</dc:date>
    <dc:format>image/svg+xml</dc:format>
    <dc:creator>
     <cc:Agent>
      <dc:title>Matplotlib v3.3.4, https://matplotlib.org/</dc:title>
     </cc:Agent>
    </dc:creator>
   </cc:Work>
  </rdf:RDF>
 </metadata>
 <defs>
  <style type="text/css">*{stroke-linecap:butt;stroke-linejoin:round;}</style>
 </defs>
 <g id="figure_1">
  <g id="patch_1">
   <path d="M 0 576 
L 864 576 
L 864 0 
L 0 0 
z
" style="fill:#ffffff;"/>
  </g>
  <g id="axes_1">
   <g id="patch_2">
    <path d="M 108 512.64 
L 777.6 512.64 
L 777.6 69.12 
L 108 69.12 
z
" style="fill:#ffffff;"/>
   </g>
   <g id="matplotlib.axis_1">
    <g id="xtick_1">
     <g id="line2d_1">
      <defs>
       <path d="M 0 0 
L 0 3.5 
" id="maa783373cc" style="stroke:#000000;stroke-width:0.8;"/>
      </defs>
      <g>
       <use style="stroke:#000000;stroke-width:0.8;" x="138.436364" xlink:href="#maa783373cc" y="512.64"/>
      </g>
     </g>
     <g id="text_1">
      <!-- 0 -->
      <g transform="translate(135.255114 527.238438)scale(0.1 -0.1)">
       <defs>
        <path d="M 31.78125 66.40625 
Q 24.171875 66.40625 20.328125 58.90625 
Q 16.5 51.421875 16.5 36.375 
Q 16.5 21.390625 20.328125 13.890625 
Q 24.171875 6.390625 31.78125 6.390625 
Q 39.453125 6.390625 43.28125 13.890625 
Q 47.125 21.390625 47.125 36.375 
Q 47.125 51.421875 43.28125 58.90625 
Q 39.453125 66.40625 31.78125 66.40625 
z
M 31.78125 74.21875 
Q 44.046875 74.21875 50.515625 64.515625 
Q 56.984375 54.828125 56.984375 36.375 
Q 56.984375 17.96875 50.515625 8.265625 
Q 44.046875 -1.421875 31.78125 -1.421875 
Q 19.53125 -1.421875 13.0625 8.265625 
Q 6.59375 17.96875 6.59375 36.375 
Q 6.59375 54.828125 13.0625 64.515625 
Q 19.53125 74.21875 31.78125 74.21875 
z
" id="DejaVuSans-48"/>
       </defs>
       <use xlink:href="#DejaVuSans-48"/>
      </g>
     </g>
    </g>
    <g id="xtick_2">
     <g id="line2d_2">
      <g>
       <use style="stroke:#000000;stroke-width:0.8;" x="261.41157" xlink:href="#maa783373cc" y="512.64"/>
      </g>
     </g>
     <g id="text_2">
      <!-- 20 -->
      <g transform="translate(255.04907 527.238438)scale(0.1 -0.1)">
       <defs>
        <path d="M 19.1875 8.296875 
L 53.609375 8.296875 
L 53.609375 0 
L 7.328125 0 
L 7.328125 8.296875 
Q 12.9375 14.109375 22.625 23.890625 
Q 32.328125 33.6875 34.8125 36.53125 
Q 39.546875 41.84375 41.421875 45.53125 
Q 43.3125 49.21875 43.3125 52.78125 
Q 43.3125 58.59375 39.234375 62.25 
Q 35.15625 65.921875 28.609375 65.921875 
Q 23.96875 65.921875 18.8125 64.3125 
Q 13.671875 62.703125 7.8125 59.421875 
L 7.8125 69.390625 
Q 13.765625 71.78125 18.9375 73 
Q 24.125 74.21875 28.421875 74.21875 
Q 39.75 74.21875 46.484375 68.546875 
Q 53.21875 62.890625 53.21875 53.421875 
Q 53.21875 48.921875 51.53125 44.890625 
Q 49.859375 40.875 45.40625 35.40625 
Q 44.1875 33.984375 37.640625 27.21875 
Q 31.109375 20.453125 19.1875 8.296875 
z
" id="DejaVuSans-50"/>
       </defs>
       <use xlink:href="#DejaVuSans-50"/>
       <use x="63.623047" xlink:href="#DejaVuSans-48"/>
      </g>
     </g>
    </g>
    <g id="xtick_3">
     <g id="line2d_3">
      <g>
       <use style="stroke:#000000;stroke-width:0.8;" x="384.386777" xlink:href="#maa783373cc" y="512.64"/>
      </g>
     </g>
     <g id="text_3">
      <!-- 40 -->
      <g transform="translate(378.024277 527.238438)scale(0.1 -0.1)">
       <defs>
        <path d="M 37.796875 64.3125 
L 12.890625 25.390625 
L 37.796875 25.390625 
z
M 35.203125 72.90625 
L 47.609375 72.90625 
L 47.609375 25.390625 
L 58.015625 25.390625 
L 58.015625 17.1875 
L 47.609375 17.1875 
L 47.609375 0 
L 37.796875 0 
L 37.796875 17.1875 
L 4.890625 17.1875 
L 4.890625 26.703125 
z
" id="DejaVuSans-52"/>
       </defs>
       <use xlink:href="#DejaVuSans-52"/>
       <use x="63.623047" xlink:href="#DejaVuSans-48"/>
      </g>
     </g>
    </g>
    <g id="xtick_4">
     <g id="line2d_4">
      <g>
       <use style="stroke:#000000;stroke-width:0.8;" x="507.361983" xlink:href="#maa783373cc" y="512.64"/>
      </g>
     </g>
     <g id="text_4">
      <!-- 60 -->
      <g transform="translate(500.999483 527.238438)scale(0.1 -0.1)">
       <defs>
        <path d="M 33.015625 40.375 
Q 26.375 40.375 22.484375 35.828125 
Q 18.609375 31.296875 18.609375 23.390625 
Q 18.609375 15.53125 22.484375 10.953125 
Q 26.375 6.390625 33.015625 6.390625 
Q 39.65625 6.390625 43.53125 10.953125 
Q 47.40625 15.53125 47.40625 23.390625 
Q 47.40625 31.296875 43.53125 35.828125 
Q 39.65625 40.375 33.015625 40.375 
z
M 52.59375 71.296875 
L 52.59375 62.3125 
Q 48.875 64.0625 45.09375 64.984375 
Q 41.3125 65.921875 37.59375 65.921875 
Q 27.828125 65.921875 22.671875 59.328125 
Q 17.53125 52.734375 16.796875 39.40625 
Q 19.671875 43.65625 24.015625 45.921875 
Q 28.375 48.1875 33.59375 48.1875 
Q 44.578125 48.1875 50.953125 41.515625 
Q 57.328125 34.859375 57.328125 23.390625 
Q 57.328125 12.15625 50.6875 5.359375 
Q 44.046875 -1.421875 33.015625 -1.421875 
Q 20.359375 -1.421875 13.671875 8.265625 
Q 6.984375 17.96875 6.984375 36.375 
Q 6.984375 53.65625 15.1875 63.9375 
Q 23.390625 74.21875 37.203125 74.21875 
Q 40.921875 74.21875 44.703125 73.484375 
Q 48.484375 72.75 52.59375 71.296875 
z
" id="DejaVuSans-54"/>
       </defs>
       <use xlink:href="#DejaVuSans-54"/>
       <use x="63.623047" xlink:href="#DejaVuSans-48"/>
      </g>
     </g>
    </g>
    <g id="xtick_5">
     <g id="line2d_5">
      <g>
       <use style="stroke:#000000;stroke-width:0.8;" x="630.33719" xlink:href="#maa783373cc" y="512.64"/>
      </g>
     </g>
     <g id="text_5">
      <!-- 80 -->
      <g transform="translate(623.97469 527.238438)scale(0.1 -0.1)">
       <defs>
        <path d="M 31.78125 34.625 
Q 24.75 34.625 20.71875 30.859375 
Q 16.703125 27.09375 16.703125 20.515625 
Q 16.703125 13.921875 20.71875 10.15625 
Q 24.75 6.390625 31.78125 6.390625 
Q 38.8125 6.390625 42.859375 10.171875 
Q 46.921875 13.96875 46.921875 20.515625 
Q 46.921875 27.09375 42.890625 30.859375 
Q 38.875 34.625 31.78125 34.625 
z
M 21.921875 38.8125 
Q 15.578125 40.375 12.03125 44.71875 
Q 8.5 49.078125 8.5 55.328125 
Q 8.5 64.0625 14.71875 69.140625 
Q 20.953125 74.21875 31.78125 74.21875 
Q 42.671875 74.21875 48.875 69.140625 
Q 55.078125 64.0625 55.078125 55.328125 
Q 55.078125 49.078125 51.53125 44.71875 
Q 48 40.375 41.703125 38.8125 
Q 48.828125 37.15625 52.796875 32.3125 
Q 56.78125 27.484375 56.78125 20.515625 
Q 56.78125 9.90625 50.3125 4.234375 
Q 43.84375 -1.421875 31.78125 -1.421875 
Q 19.734375 -1.421875 13.25 4.234375 
Q 6.78125 9.90625 6.78125 20.515625 
Q 6.78125 27.484375 10.78125 32.3125 
Q 14.796875 37.15625 21.921875 38.8125 
z
M 18.3125 54.390625 
Q 18.3125 48.734375 21.84375 45.5625 
Q 25.390625 42.390625 31.78125 42.390625 
Q 38.140625 42.390625 41.71875 45.5625 
Q 45.3125 48.734375 45.3125 54.390625 
Q 45.3125 60.0625 41.71875 63.234375 
Q 38.140625 66.40625 31.78125 66.40625 
Q 25.390625 66.40625 21.84375 63.234375 
Q 18.3125 60.0625 18.3125 54.390625 
z
" id="DejaVuSans-56"/>
       </defs>
       <use xlink:href="#DejaVuSans-56"/>
       <use x="63.623047" xlink:href="#DejaVuSans-48"/>
      </g>
     </g>
    </g>
    <g id="xtick_6">
     <g id="line2d_6">
      <g>
       <use style="stroke:#000000;stroke-width:0.8;" x="753.312397" xlink:href="#maa783373cc" y="512.64"/>
      </g>
     </g>
     <g id="text_6">
      <!-- 100 -->
      <g transform="translate(743.768647 527.238438)scale(0.1 -0.1)">
       <defs>
        <path d="M 12.40625 8.296875 
L 28.515625 8.296875 
L 28.515625 63.921875 
L 10.984375 60.40625 
L 10.984375 69.390625 
L 28.421875 72.90625 
L 38.28125 72.90625 
L 38.28125 8.296875 
L 54.390625 8.296875 
L 54.390625 0 
L 12.40625 0 
z
" id="DejaVuSans-49"/>
       </defs>
       <use xlink:href="#DejaVuSans-49"/>
       <use x="63.623047" xlink:href="#DejaVuSans-48"/>
       <use x="127.246094" xlink:href="#DejaVuSans-48"/>
      </g>
     </g>
    </g>
    <g id="text_7">
     <!-- Number of runs -->
     <g transform="translate(403.71875 540.916563)scale(0.1 -0.1)">
      <defs>
       <path d="M 9.8125 72.90625 
L 23.09375 72.90625 
L 55.421875 11.921875 
L 55.421875 72.90625 
L 64.984375 72.90625 
L 64.984375 0 
L 51.703125 0 
L 19.390625 60.984375 
L 19.390625 0 
L 9.8125 0 
z
" id="DejaVuSans-78"/>
       <path d="M 8.5 21.578125 
L 8.5 54.6875 
L 17.484375 54.6875 
L 17.484375 21.921875 
Q 17.484375 14.15625 20.5 10.265625 
Q 23.53125 6.390625 29.59375 6.390625 
Q 36.859375 6.390625 41.078125 11.03125 
Q 45.3125 15.671875 45.3125 23.6875 
L 45.3125 54.6875 
L 54.296875 54.6875 
L 54.296875 0 
L 45.3125 0 
L 45.3125 8.40625 
Q 42.046875 3.421875 37.71875 1 
Q 33.40625 -1.421875 27.6875 -1.421875 
Q 18.265625 -1.421875 13.375 4.4375 
Q 8.5 10.296875 8.5 21.578125 
z
M 31.109375 56 
z
" id="DejaVuSans-117"/>
       <path d="M 52 44.1875 
Q 55.375 50.25 60.0625 53.125 
Q 64.75 56 71.09375 56 
Q 79.640625 56 84.28125 50.015625 
Q 88.921875 44.046875 88.921875 33.015625 
L 88.921875 0 
L 79.890625 0 
L 79.890625 32.71875 
Q 79.890625 40.578125 77.09375 44.375 
Q 74.3125 48.1875 68.609375 48.1875 
Q 61.625 48.1875 57.5625 43.546875 
Q 53.515625 38.921875 53.515625 30.90625 
L 53.515625 0 
L 44.484375 0 
L 44.484375 32.71875 
Q 44.484375 40.625 41.703125 44.40625 
Q 38.921875 48.1875 33.109375 48.1875 
Q 26.21875 48.1875 22.15625 43.53125 
Q 18.109375 38.875 18.109375 30.90625 
L 18.109375 0 
L 9.078125 0 
L 9.078125 54.6875 
L 18.109375 54.6875 
L 18.109375 46.1875 
Q 21.1875 51.21875 25.484375 53.609375 
Q 29.78125 56 35.6875 56 
Q 41.65625 56 45.828125 52.96875 
Q 50 49.953125 52 44.1875 
z
" id="DejaVuSans-109"/>
       <path d="M 48.6875 27.296875 
Q 48.6875 37.203125 44.609375 42.84375 
Q 40.53125 48.484375 33.40625 48.484375 
Q 26.265625 48.484375 22.1875 42.84375 
Q 18.109375 37.203125 18.109375 27.296875 
Q 18.109375 17.390625 22.1875 11.75 
Q 26.265625 6.109375 33.40625 6.109375 
Q 40.53125 6.109375 44.609375 11.75 
Q 48.6875 17.390625 48.6875 27.296875 
z
M 18.109375 46.390625 
Q 20.953125 51.265625 25.265625 53.625 
Q 29.59375 56 35.59375 56 
Q 45.5625 56 51.78125 48.09375 
Q 58.015625 40.1875 58.015625 27.296875 
Q 58.015625 14.40625 51.78125 6.484375 
Q 45.5625 -1.421875 35.59375 -1.421875 
Q 29.59375 -1.421875 25.265625 0.953125 
Q 20.953125 3.328125 18.109375 8.203125 
L 18.109375 0 
L 9.078125 0 
L 9.078125 75.984375 
L 18.109375 75.984375 
z
" id="DejaVuSans-98"/>
       <path d="M 56.203125 29.59375 
L 56.203125 25.203125 
L 14.890625 25.203125 
Q 15.484375 15.921875 20.484375 11.0625 
Q 25.484375 6.203125 34.421875 6.203125 
Q 39.59375 6.203125 44.453125 7.46875 
Q 49.3125 8.734375 54.109375 11.28125 
L 54.109375 2.78125 
Q 49.265625 0.734375 44.1875 -0.34375 
Q 39.109375 -1.421875 33.890625 -1.421875 
Q 20.796875 -1.421875 13.15625 6.1875 
Q 5.515625 13.8125 5.515625 26.8125 
Q 5.515625 40.234375 12.765625 48.109375 
Q 20.015625 56 32.328125 56 
Q 43.359375 56 49.78125 48.890625 
Q 56.203125 41.796875 56.203125 29.59375 
z
M 47.21875 32.234375 
Q 47.125 39.59375 43.09375 43.984375 
Q 39.0625 48.390625 32.421875 48.390625 
Q 24.90625 48.390625 20.390625 44.140625 
Q 15.875 39.890625 15.1875 32.171875 
z
" id="DejaVuSans-101"/>
       <path d="M 41.109375 46.296875 
Q 39.59375 47.171875 37.8125 47.578125 
Q 36.03125 48 33.890625 48 
Q 26.265625 48 22.1875 43.046875 
Q 18.109375 38.09375 18.109375 28.8125 
L 18.109375 0 
L 9.078125 0 
L 9.078125 54.6875 
L 18.109375 54.6875 
L 18.109375 46.1875 
Q 20.953125 51.171875 25.484375 53.578125 
Q 30.03125 56 36.53125 56 
Q 37.453125 56 38.578125 55.875 
Q 39.703125 55.765625 41.0625 55.515625 
z
" id="DejaVuSans-114"/>
       <path id="DejaVuSans-32"/>
       <path d="M 30.609375 48.390625 
Q 23.390625 48.390625 19.1875 42.75 
Q 14.984375 37.109375 14.984375 27.296875 
Q 14.984375 17.484375 19.15625 11.84375 
Q 23.34375 6.203125 30.609375 6.203125 
Q 37.796875 6.203125 41.984375 11.859375 
Q 46.1875 17.53125 46.1875 27.296875 
Q 46.1875 37.015625 41.984375 42.703125 
Q 37.796875 48.390625 30.609375 48.390625 
z
M 30.609375 56 
Q 42.328125 56 49.015625 48.375 
Q 55.71875 40.765625 55.71875 27.296875 
Q 55.71875 13.875 49.015625 6.21875 
Q 42.328125 -1.421875 30.609375 -1.421875 
Q 18.84375 -1.421875 12.171875 6.21875 
Q 5.515625 13.875 5.515625 27.296875 
Q 5.515625 40.765625 12.171875 48.375 
Q 18.84375 56 30.609375 56 
z
" id="DejaVuSans-111"/>
       <path d="M 37.109375 75.984375 
L 37.109375 68.5 
L 28.515625 68.5 
Q 23.6875 68.5 21.796875 66.546875 
Q 19.921875 64.59375 19.921875 59.515625 
L 19.921875 54.6875 
L 34.71875 54.6875 
L 34.71875 47.703125 
L 19.921875 47.703125 
L 19.921875 0 
L 10.890625 0 
L 10.890625 47.703125 
L 2.296875 47.703125 
L 2.296875 54.6875 
L 10.890625 54.6875 
L 10.890625 58.5 
Q 10.890625 67.625 15.140625 71.796875 
Q 19.390625 75.984375 28.609375 75.984375 
z
" id="DejaVuSans-102"/>
       <path d="M 54.890625 33.015625 
L 54.890625 0 
L 45.90625 0 
L 45.90625 32.71875 
Q 45.90625 40.484375 42.875 44.328125 
Q 39.84375 48.1875 33.796875 48.1875 
Q 26.515625 48.1875 22.3125 43.546875 
Q 18.109375 38.921875 18.109375 30.90625 
L 18.109375 0 
L 9.078125 0 
L 9.078125 54.6875 
L 18.109375 54.6875 
L 18.109375 46.1875 
Q 21.34375 51.125 25.703125 53.5625 
Q 30.078125 56 35.796875 56 
Q 45.21875 56 50.046875 50.171875 
Q 54.890625 44.34375 54.890625 33.015625 
z
" id="DejaVuSans-110"/>
       <path d="M 44.28125 53.078125 
L 44.28125 44.578125 
Q 40.484375 46.53125 36.375 47.5 
Q 32.28125 48.484375 27.875 48.484375 
Q 21.1875 48.484375 17.84375 46.4375 
Q 14.5 44.390625 14.5 40.28125 
Q 14.5 37.15625 16.890625 35.375 
Q 19.28125 33.59375 26.515625 31.984375 
L 29.59375 31.296875 
Q 39.15625 29.25 43.1875 25.515625 
Q 47.21875 21.78125 47.21875 15.09375 
Q 47.21875 7.46875 41.1875 3.015625 
Q 35.15625 -1.421875 24.609375 -1.421875 
Q 20.21875 -1.421875 15.453125 -0.5625 
Q 10.6875 0.296875 5.421875 2 
L 5.421875 11.28125 
Q 10.40625 8.6875 15.234375 7.390625 
Q 20.0625 6.109375 24.8125 6.109375 
Q 31.15625 6.109375 34.5625 8.28125 
Q 37.984375 10.453125 37.984375 14.40625 
Q 37.984375 18.0625 35.515625 20.015625 
Q 33.0625 21.96875 24.703125 23.78125 
L 21.578125 24.515625 
Q 13.234375 26.265625 9.515625 29.90625 
Q 5.8125 33.546875 5.8125 39.890625 
Q 5.8125 47.609375 11.28125 51.796875 
Q 16.75 56 26.8125 56 
Q 31.78125 56 36.171875 55.265625 
Q 40.578125 54.546875 44.28125 53.078125 
z
" id="DejaVuSans-115"/>
      </defs>
      <use xlink:href="#DejaVuSans-78"/>
      <use x="74.804688" xlink:href="#DejaVuSans-117"/>
      <use x="138.183594" xlink:href="#DejaVuSans-109"/>
      <use x="235.595703" xlink:href="#DejaVuSans-98"/>
      <use x="299.072266" xlink:href="#DejaVuSans-101"/>
      <use x="360.595703" xlink:href="#DejaVuSans-114"/>
      <use x="401.708984" xlink:href="#DejaVuSans-32"/>
      <use x="433.496094" xlink:href="#DejaVuSans-111"/>
      <use x="494.677734" xlink:href="#DejaVuSans-102"/>
      <use x="529.882812" xlink:href="#DejaVuSans-32"/>
      <use x="561.669922" xlink:href="#DejaVuSans-114"/>
      <use x="602.783203" xlink:href="#DejaVuSans-117"/>
      <use x="666.162109" xlink:href="#DejaVuSans-110"/>
      <use x="729.541016" xlink:href="#DejaVuSans-115"/>
     </g>
    </g>
   </g>
   <g id="matplotlib.axis_2">
    <g id="ytick_1">
     <g id="line2d_7">
      <defs>
       <path d="M 0 0 
L -3.5 0 
" id="m4f4b975c57" style="stroke:#000000;stroke-width:0.8;"/>
      </defs>
      <g>
       <use style="stroke:#000000;stroke-width:0.8;" x="108" xlink:href="#m4f4b975c57" y="506.987241"/>
      </g>
     </g>
     <g id="text_8">
      <!-- 5.925 -->
      <g transform="translate(72.371875 510.78646)scale(0.1 -0.1)">
       <defs>
        <path d="M 10.796875 72.90625 
L 49.515625 72.90625 
L 49.515625 64.59375 
L 19.828125 64.59375 
L 19.828125 46.734375 
Q 21.96875 47.46875 24.109375 47.828125 
Q 26.265625 48.1875 28.421875 48.1875 
Q 40.625 48.1875 47.75 41.5 
Q 54.890625 34.8125 54.890625 23.390625 
Q 54.890625 11.625 47.5625 5.09375 
Q 40.234375 -1.421875 26.90625 -1.421875 
Q 22.3125 -1.421875 17.546875 -0.640625 
Q 12.796875 0.140625 7.71875 1.703125 
L 7.71875 11.625 
Q 12.109375 9.234375 16.796875 8.0625 
Q 21.484375 6.890625 26.703125 6.890625 
Q 35.15625 6.890625 40.078125 11.328125 
Q 45.015625 15.765625 45.015625 23.390625 
Q 45.015625 31 40.078125 35.4375 
Q 35.15625 39.890625 26.703125 39.890625 
Q 22.75 39.890625 18.8125 39.015625 
Q 14.890625 38.140625 10.796875 36.28125 
z
" id="DejaVuSans-53"/>
        <path d="M 10.6875 12.40625 
L 21 12.40625 
L 21 0 
L 10.6875 0 
z
" id="DejaVuSans-46"/>
        <path d="M 10.984375 1.515625 
L 10.984375 10.5 
Q 14.703125 8.734375 18.5 7.8125 
Q 22.3125 6.890625 25.984375 6.890625 
Q 35.75 6.890625 40.890625 13.453125 
Q 46.046875 20.015625 46.78125 33.40625 
Q 43.953125 29.203125 39.59375 26.953125 
Q 35.25 24.703125 29.984375 24.703125 
Q 19.046875 24.703125 12.671875 31.3125 
Q 6.296875 37.9375 6.296875 49.421875 
Q 6.296875 60.640625 12.9375 67.421875 
Q 19.578125 74.21875 30.609375 74.21875 
Q 43.265625 74.21875 49.921875 64.515625 
Q 56.59375 54.828125 56.59375 36.375 
Q 56.59375 19.140625 48.40625 8.859375 
Q 40.234375 -1.421875 26.421875 -1.421875 
Q 22.703125 -1.421875 18.890625 -0.6875 
Q 15.09375 0.046875 10.984375 1.515625 
z
M 30.609375 32.421875 
Q 37.25 32.421875 41.125 36.953125 
Q 45.015625 41.5 45.015625 49.421875 
Q 45.015625 57.28125 41.125 61.84375 
Q 37.25 66.40625 30.609375 66.40625 
Q 23.96875 66.40625 20.09375 61.84375 
Q 16.21875 57.28125 16.21875 49.421875 
Q 16.21875 41.5 20.09375 36.953125 
Q 23.96875 32.421875 30.609375 32.421875 
z
" id="DejaVuSans-57"/>
       </defs>
       <use xlink:href="#DejaVuSans-53"/>
       <use x="63.623047" xlink:href="#DejaVuSans-46"/>
       <use x="95.410156" xlink:href="#DejaVuSans-57"/>
       <use x="159.033203" xlink:href="#DejaVuSans-50"/>
       <use x="222.65625" xlink:href="#DejaVuSans-53"/>
      </g>
     </g>
    </g>
    <g id="ytick_2">
     <g id="line2d_8">
      <g>
       <use style="stroke:#000000;stroke-width:0.8;" x="108" xlink:href="#m4f4b975c57" y="456.333466"/>
      </g>
     </g>
     <g id="text_9">
      <!-- 5.950 -->
      <g transform="translate(72.371875 460.132685)scale(0.1 -0.1)">
       <use xlink:href="#DejaVuSans-53"/>
       <use x="63.623047" xlink:href="#DejaVuSans-46"/>
       <use x="95.410156" xlink:href="#DejaVuSans-57"/>
       <use x="159.033203" xlink:href="#DejaVuSans-53"/>
       <use x="222.65625" xlink:href="#DejaVuSans-48"/>
      </g>
     </g>
    </g>
    <g id="ytick_3">
     <g id="line2d_9">
      <g>
       <use style="stroke:#000000;stroke-width:0.8;" x="108" xlink:href="#m4f4b975c57" y="405.67969"/>
      </g>
     </g>
     <g id="text_10">
      <!-- 5.975 -->
      <g transform="translate(72.371875 409.478909)scale(0.1 -0.1)">
       <defs>
        <path d="M 8.203125 72.90625 
L 55.078125 72.90625 
L 55.078125 68.703125 
L 28.609375 0 
L 18.3125 0 
L 43.21875 64.59375 
L 8.203125 64.59375 
z
" id="DejaVuSans-55"/>
       </defs>
       <use xlink:href="#DejaVuSans-53"/>
       <use x="63.623047" xlink:href="#DejaVuSans-46"/>
       <use x="95.410156" xlink:href="#DejaVuSans-57"/>
       <use x="159.033203" xlink:href="#DejaVuSans-55"/>
       <use x="222.65625" xlink:href="#DejaVuSans-53"/>
      </g>
     </g>
    </g>
    <g id="ytick_4">
     <g id="line2d_10">
      <g>
       <use style="stroke:#000000;stroke-width:0.8;" x="108" xlink:href="#m4f4b975c57" y="355.025915"/>
      </g>
     </g>
     <g id="text_11">
      <!-- 6.000 -->
      <g transform="translate(72.371875 358.825134)scale(0.1 -0.1)">
       <use xlink:href="#DejaVuSans-54"/>
       <use x="63.623047" xlink:href="#DejaVuSans-46"/>
       <use x="95.410156" xlink:href="#DejaVuSans-48"/>
       <use x="159.033203" xlink:href="#DejaVuSans-48"/>
       <use x="222.65625" xlink:href="#DejaVuSans-48"/>
      </g>
     </g>
    </g>
    <g id="ytick_5">
     <g id="line2d_11">
      <g>
       <use style="stroke:#000000;stroke-width:0.8;" x="108" xlink:href="#m4f4b975c57" y="304.37214"/>
      </g>
     </g>
     <g id="text_12">
      <!-- 6.025 -->
      <g transform="translate(72.371875 308.171358)scale(0.1 -0.1)">
       <use xlink:href="#DejaVuSans-54"/>
       <use x="63.623047" xlink:href="#DejaVuSans-46"/>
       <use x="95.410156" xlink:href="#DejaVuSans-48"/>
       <use x="159.033203" xlink:href="#DejaVuSans-50"/>
       <use x="222.65625" xlink:href="#DejaVuSans-53"/>
      </g>
     </g>
    </g>
    <g id="ytick_6">
     <g id="line2d_12">
      <g>
       <use style="stroke:#000000;stroke-width:0.8;" x="108" xlink:href="#m4f4b975c57" y="253.718364"/>
      </g>
     </g>
     <g id="text_13">
      <!-- 6.050 -->
      <g transform="translate(72.371875 257.517583)scale(0.1 -0.1)">
       <use xlink:href="#DejaVuSans-54"/>
       <use x="63.623047" xlink:href="#DejaVuSans-46"/>
       <use x="95.410156" xlink:href="#DejaVuSans-48"/>
       <use x="159.033203" xlink:href="#DejaVuSans-53"/>
       <use x="222.65625" xlink:href="#DejaVuSans-48"/>
      </g>
     </g>
    </g>
    <g id="ytick_7">
     <g id="line2d_13">
      <g>
       <use style="stroke:#000000;stroke-width:0.8;" x="108" xlink:href="#m4f4b975c57" y="203.064589"/>
      </g>
     </g>
     <g id="text_14">
      <!-- 6.075 -->
      <g transform="translate(72.371875 206.863808)scale(0.1 -0.1)">
       <use xlink:href="#DejaVuSans-54"/>
       <use x="63.623047" xlink:href="#DejaVuSans-46"/>
       <use x="95.410156" xlink:href="#DejaVuSans-48"/>
       <use x="159.033203" xlink:href="#DejaVuSans-55"/>
       <use x="222.65625" xlink:href="#DejaVuSans-53"/>
      </g>
     </g>
    </g>
    <g id="ytick_8">
     <g id="line2d_14">
      <g>
       <use style="stroke:#000000;stroke-width:0.8;" x="108" xlink:href="#m4f4b975c57" y="152.410813"/>
      </g>
     </g>
     <g id="text_15">
      <!-- 6.100 -->
      <g transform="translate(72.371875 156.210032)scale(0.1 -0.1)">
       <use xlink:href="#DejaVuSans-54"/>
       <use x="63.623047" xlink:href="#DejaVuSans-46"/>
       <use x="95.410156" xlink:href="#DejaVuSans-49"/>
       <use x="159.033203" xlink:href="#DejaVuSans-48"/>
       <use x="222.65625" xlink:href="#DejaVuSans-48"/>
      </g>
     </g>
    </g>
    <g id="ytick_9">
     <g id="line2d_15">
      <g>
       <use style="stroke:#000000;stroke-width:0.8;" x="108" xlink:href="#m4f4b975c57" y="101.757038"/>
      </g>
     </g>
     <g id="text_16">
      <!-- 6.125 -->
      <g transform="translate(72.371875 105.556257)scale(0.1 -0.1)">
       <use xlink:href="#DejaVuSans-54"/>
       <use x="63.623047" xlink:href="#DejaVuSans-46"/>
       <use x="95.410156" xlink:href="#DejaVuSans-49"/>
       <use x="159.033203" xlink:href="#DejaVuSans-50"/>
       <use x="222.65625" xlink:href="#DejaVuSans-53"/>
      </g>
     </g>
    </g>
    <g id="text_17">
     <!-- Average peak to peak (V) -->
     <g transform="translate(66.292187 354.530781)rotate(-90)scale(0.1 -0.1)">
      <defs>
       <path d="M 34.1875 63.1875 
L 20.796875 26.90625 
L 47.609375 26.90625 
z
M 28.609375 72.90625 
L 39.796875 72.90625 
L 67.578125 0 
L 57.328125 0 
L 50.6875 18.703125 
L 17.828125 18.703125 
L 11.1875 0 
L 0.78125 0 
z
" id="DejaVuSans-65"/>
       <path d="M 2.984375 54.6875 
L 12.5 54.6875 
L 29.59375 8.796875 
L 46.6875 54.6875 
L 56.203125 54.6875 
L 35.6875 0 
L 23.484375 0 
z
" id="DejaVuSans-118"/>
       <path d="M 34.28125 27.484375 
Q 23.390625 27.484375 19.1875 25 
Q 14.984375 22.515625 14.984375 16.5 
Q 14.984375 11.71875 18.140625 8.90625 
Q 21.296875 6.109375 26.703125 6.109375 
Q 34.1875 6.109375 38.703125 11.40625 
Q 43.21875 16.703125 43.21875 25.484375 
L 43.21875 27.484375 
z
M 52.203125 31.203125 
L 52.203125 0 
L 43.21875 0 
L 43.21875 8.296875 
Q 40.140625 3.328125 35.546875 0.953125 
Q 30.953125 -1.421875 24.3125 -1.421875 
Q 15.921875 -1.421875 10.953125 3.296875 
Q 6 8.015625 6 15.921875 
Q 6 25.140625 12.171875 29.828125 
Q 18.359375 34.515625 30.609375 34.515625 
L 43.21875 34.515625 
L 43.21875 35.40625 
Q 43.21875 41.609375 39.140625 45 
Q 35.0625 48.390625 27.6875 48.390625 
Q 23 48.390625 18.546875 47.265625 
Q 14.109375 46.140625 10.015625 43.890625 
L 10.015625 52.203125 
Q 14.9375 54.109375 19.578125 55.046875 
Q 24.21875 56 28.609375 56 
Q 40.484375 56 46.34375 49.84375 
Q 52.203125 43.703125 52.203125 31.203125 
z
" id="DejaVuSans-97"/>
       <path d="M 45.40625 27.984375 
Q 45.40625 37.75 41.375 43.109375 
Q 37.359375 48.484375 30.078125 48.484375 
Q 22.859375 48.484375 18.828125 43.109375 
Q 14.796875 37.75 14.796875 27.984375 
Q 14.796875 18.265625 18.828125 12.890625 
Q 22.859375 7.515625 30.078125 7.515625 
Q 37.359375 7.515625 41.375 12.890625 
Q 45.40625 18.265625 45.40625 27.984375 
z
M 54.390625 6.78125 
Q 54.390625 -7.171875 48.1875 -13.984375 
Q 42 -20.796875 29.203125 -20.796875 
Q 24.46875 -20.796875 20.265625 -20.09375 
Q 16.0625 -19.390625 12.109375 -17.921875 
L 12.109375 -9.1875 
Q 16.0625 -11.328125 19.921875 -12.34375 
Q 23.78125 -13.375 27.78125 -13.375 
Q 36.625 -13.375 41.015625 -8.765625 
Q 45.40625 -4.15625 45.40625 5.171875 
L 45.40625 9.625 
Q 42.625 4.78125 38.28125 2.390625 
Q 33.9375 0 27.875 0 
Q 17.828125 0 11.671875 7.65625 
Q 5.515625 15.328125 5.515625 27.984375 
Q 5.515625 40.671875 11.671875 48.328125 
Q 17.828125 56 27.875 56 
Q 33.9375 56 38.28125 53.609375 
Q 42.625 51.21875 45.40625 46.390625 
L 45.40625 54.6875 
L 54.390625 54.6875 
z
" id="DejaVuSans-103"/>
       <path d="M 18.109375 8.203125 
L 18.109375 -20.796875 
L 9.078125 -20.796875 
L 9.078125 54.6875 
L 18.109375 54.6875 
L 18.109375 46.390625 
Q 20.953125 51.265625 25.265625 53.625 
Q 29.59375 56 35.59375 56 
Q 45.5625 56 51.78125 48.09375 
Q 58.015625 40.1875 58.015625 27.296875 
Q 58.015625 14.40625 51.78125 6.484375 
Q 45.5625 -1.421875 35.59375 -1.421875 
Q 29.59375 -1.421875 25.265625 0.953125 
Q 20.953125 3.328125 18.109375 8.203125 
z
M 48.6875 27.296875 
Q 48.6875 37.203125 44.609375 42.84375 
Q 40.53125 48.484375 33.40625 48.484375 
Q 26.265625 48.484375 22.1875 42.84375 
Q 18.109375 37.203125 18.109375 27.296875 
Q 18.109375 17.390625 22.1875 11.75 
Q 26.265625 6.109375 33.40625 6.109375 
Q 40.53125 6.109375 44.609375 11.75 
Q 48.6875 17.390625 48.6875 27.296875 
z
" id="DejaVuSans-112"/>
       <path d="M 9.078125 75.984375 
L 18.109375 75.984375 
L 18.109375 31.109375 
L 44.921875 54.6875 
L 56.390625 54.6875 
L 27.390625 29.109375 
L 57.625 0 
L 45.90625 0 
L 18.109375 26.703125 
L 18.109375 0 
L 9.078125 0 
z
" id="DejaVuSans-107"/>
       <path d="M 18.3125 70.21875 
L 18.3125 54.6875 
L 36.8125 54.6875 
L 36.8125 47.703125 
L 18.3125 47.703125 
L 18.3125 18.015625 
Q 18.3125 11.328125 20.140625 9.421875 
Q 21.96875 7.515625 27.59375 7.515625 
L 36.8125 7.515625 
L 36.8125 0 
L 27.59375 0 
Q 17.1875 0 13.234375 3.875 
Q 9.28125 7.765625 9.28125 18.015625 
L 9.28125 47.703125 
L 2.6875 47.703125 
L 2.6875 54.6875 
L 9.28125 54.6875 
L 9.28125 70.21875 
z
" id="DejaVuSans-116"/>
       <path d="M 31 75.875 
Q 24.46875 64.65625 21.28125 53.65625 
Q 18.109375 42.671875 18.109375 31.390625 
Q 18.109375 20.125 21.3125 9.0625 
Q 24.515625 -2 31 -13.1875 
L 23.1875 -13.1875 
Q 15.875 -1.703125 12.234375 9.375 
Q 8.59375 20.453125 8.59375 31.390625 
Q 8.59375 42.28125 12.203125 53.3125 
Q 15.828125 64.359375 23.1875 75.875 
z
" id="DejaVuSans-40"/>
       <path d="M 28.609375 0 
L 0.78125 72.90625 
L 11.078125 72.90625 
L 34.1875 11.53125 
L 57.328125 72.90625 
L 67.578125 72.90625 
L 39.796875 0 
z
" id="DejaVuSans-86"/>
       <path d="M 8.015625 75.875 
L 15.828125 75.875 
Q 23.140625 64.359375 26.78125 53.3125 
Q 30.421875 42.28125 30.421875 31.390625 
Q 30.421875 20.453125 26.78125 9.375 
Q 23.140625 -1.703125 15.828125 -13.1875 
L 8.015625 -13.1875 
Q 14.5 -2 17.703125 9.0625 
Q 20.90625 20.125 20.90625 31.390625 
Q 20.90625 42.671875 17.703125 53.65625 
Q 14.5 64.65625 8.015625 75.875 
z
" id="DejaVuSans-41"/>
      </defs>
      <use xlink:href="#DejaVuSans-65"/>
      <use x="62.533203" xlink:href="#DejaVuSans-118"/>
      <use x="121.712891" xlink:href="#DejaVuSans-101"/>
      <use x="183.236328" xlink:href="#DejaVuSans-114"/>
      <use x="224.349609" xlink:href="#DejaVuSans-97"/>
      <use x="285.628906" xlink:href="#DejaVuSans-103"/>
      <use x="349.105469" xlink:href="#DejaVuSans-101"/>
      <use x="410.628906" xlink:href="#DejaVuSans-32"/>
      <use x="442.416016" xlink:href="#DejaVuSans-112"/>
      <use x="505.892578" xlink:href="#DejaVuSans-101"/>
      <use x="567.416016" xlink:href="#DejaVuSans-97"/>
      <use x="628.695312" xlink:href="#DejaVuSans-107"/>
      <use x="686.605469" xlink:href="#DejaVuSans-32"/>
      <use x="718.392578" xlink:href="#DejaVuSans-116"/>
      <use x="757.601562" xlink:href="#DejaVuSans-111"/>
      <use x="818.783203" xlink:href="#DejaVuSans-32"/>
      <use x="850.570312" xlink:href="#DejaVuSans-112"/>
      <use x="914.046875" xlink:href="#DejaVuSans-101"/>
      <use x="975.570312" xlink:href="#DejaVuSans-97"/>
      <use x="1036.849609" xlink:href="#DejaVuSans-107"/>
      <use x="1094.759766" xlink:href="#DejaVuSans-32"/>
      <use x="1126.546875" xlink:href="#DejaVuSans-40"/>
      <use x="1165.560547" xlink:href="#DejaVuSans-86"/>
      <use x="1233.96875" xlink:href="#DejaVuSans-41"/>
     </g>
    </g>
   </g>
   <g id="line2d_16">
    <defs>
     <path d="M 0 3 
C 0.795609 3 1.55874 2.683901 2.12132 2.12132 
C 2.683901 1.55874 3 0.795609 3 0 
C 3 -0.795609 2.683901 -1.55874 2.12132 -2.12132 
C 1.55874 -2.683901 0.795609 -3 0 -3 
C -0.795609 -3 -1.55874 -2.683901 -2.12132 -2.12132 
C -2.683901 -1.55874 -3 -0.795609 -3 0 
C -3 0.795609 -2.683901 1.55874 -2.12132 2.12132 
C -1.55874 2.683901 -0.795609 3 0 3 
z
" id="m12346b6b48" style="stroke:#000000;"/>
    </defs>
    <g clip-path="url(#pe77bd5ffcc)">
     <use style="stroke:#000000;" x="138.436364" xlink:href="#m12346b6b48" y="492.48"/>
     <use style="stroke:#000000;" x="144.585124" xlink:href="#m12346b6b48" y="492.48"/>
     <use style="stroke:#000000;" x="150.733884" xlink:href="#m12346b6b48" y="492.48"/>
     <use style="stroke:#000000;" x="156.882645" xlink:href="#m12346b6b48" y="492.48"/>
     <use style="stroke:#000000;" x="163.031405" xlink:href="#m12346b6b48" y="492.48"/>
     <use style="stroke:#000000;" x="169.180165" xlink:href="#m12346b6b48" y="492.48"/>
     <use style="stroke:#000000;" x="175.328926" xlink:href="#m12346b6b48" y="492.48"/>
     <use style="stroke:#000000;" x="181.477686" xlink:href="#m12346b6b48" y="492.48"/>
     <use style="stroke:#000000;" x="187.626446" xlink:href="#m12346b6b48" y="492.48"/>
     <use style="stroke:#000000;" x="193.775207" xlink:href="#m12346b6b48" y="492.48"/>
     <use style="stroke:#000000;" x="199.923967" xlink:href="#m12346b6b48" y="492.48"/>
     <use style="stroke:#000000;" x="206.072727" xlink:href="#m12346b6b48" y="492.48"/>
     <use style="stroke:#000000;" x="212.221488" xlink:href="#m12346b6b48" y="492.48"/>
     <use style="stroke:#000000;" x="218.370248" xlink:href="#m12346b6b48" y="492.48"/>
     <use style="stroke:#000000;" x="224.519008" xlink:href="#m12346b6b48" y="492.48"/>
     <use style="stroke:#000000;" x="230.667769" xlink:href="#m12346b6b48" y="492.48"/>
     <use style="stroke:#000000;" x="236.816529" xlink:href="#m12346b6b48" y="492.48"/>
     <use style="stroke:#000000;" x="242.965289" xlink:href="#m12346b6b48" y="492.48"/>
     <use style="stroke:#000000;" x="249.11405" xlink:href="#m12346b6b48" y="492.48"/>
     <use style="stroke:#000000;" x="255.26281" xlink:href="#m12346b6b48" y="492.48"/>
     <use style="stroke:#000000;" x="261.41157" xlink:href="#m12346b6b48" y="492.48"/>
     <use style="stroke:#000000;" x="267.560331" xlink:href="#m12346b6b48" y="492.48"/>
     <use style="stroke:#000000;" x="273.709091" xlink:href="#m12346b6b48" y="492.48"/>
     <use style="stroke:#000000;" x="279.857851" xlink:href="#m12346b6b48" y="492.48"/>
     <use style="stroke:#000000;" x="286.006612" xlink:href="#m12346b6b48" y="492.48"/>
     <use style="stroke:#000000;" x="292.155372" xlink:href="#m12346b6b48" y="492.48"/>
     <use style="stroke:#000000;" x="298.304132" xlink:href="#m12346b6b48" y="492.48"/>
     <use style="stroke:#000000;" x="304.452893" xlink:href="#m12346b6b48" y="492.48"/>
     <use style="stroke:#000000;" x="310.601653" xlink:href="#m12346b6b48" y="492.48"/>
     <use style="stroke:#000000;" x="316.750413" xlink:href="#m12346b6b48" y="492.48"/>
     <use style="stroke:#000000;" x="322.899174" xlink:href="#m12346b6b48" y="492.48"/>
     <use style="stroke:#000000;" x="329.047934" xlink:href="#m12346b6b48" y="492.48"/>
     <use style="stroke:#000000;" x="335.196694" xlink:href="#m12346b6b48" y="492.48"/>
     <use style="stroke:#000000;" x="341.345455" xlink:href="#m12346b6b48" y="492.48"/>
     <use style="stroke:#000000;" x="347.494215" xlink:href="#m12346b6b48" y="492.48"/>
     <use style="stroke:#000000;" x="353.642975" xlink:href="#m12346b6b48" y="492.48"/>
     <use style="stroke:#000000;" x="359.791736" xlink:href="#m12346b6b48" y="492.48"/>
     <use style="stroke:#000000;" x="365.940496" xlink:href="#m12346b6b48" y="492.48"/>
     <use style="stroke:#000000;" x="372.089256" xlink:href="#m12346b6b48" y="492.48"/>
     <use style="stroke:#000000;" x="378.238017" xlink:href="#m12346b6b48" y="492.48"/>
     <use style="stroke:#000000;" x="384.386777" xlink:href="#m12346b6b48" y="492.48"/>
     <use style="stroke:#000000;" x="390.535537" xlink:href="#m12346b6b48" y="492.48"/>
     <use style="stroke:#000000;" x="396.684298" xlink:href="#m12346b6b48" y="492.48"/>
     <use style="stroke:#000000;" x="402.833058" xlink:href="#m12346b6b48" y="492.48"/>
     <use style="stroke:#000000;" x="408.981818" xlink:href="#m12346b6b48" y="492.48"/>
     <use style="stroke:#000000;" x="415.130579" xlink:href="#m12346b6b48" y="492.48"/>
     <use style="stroke:#000000;" x="421.279339" xlink:href="#m12346b6b48" y="492.48"/>
     <use style="stroke:#000000;" x="427.428099" xlink:href="#m12346b6b48" y="492.48"/>
     <use style="stroke:#000000;" x="433.57686" xlink:href="#m12346b6b48" y="492.48"/>
     <use style="stroke:#000000;" x="439.72562" xlink:href="#m12346b6b48" y="492.48"/>
     <use style="stroke:#000000;" x="445.87438" xlink:href="#m12346b6b48" y="492.48"/>
     <use style="stroke:#000000;" x="452.02314" xlink:href="#m12346b6b48" y="492.48"/>
     <use style="stroke:#000000;" x="458.171901" xlink:href="#m12346b6b48" y="492.48"/>
     <use style="stroke:#000000;" x="464.320661" xlink:href="#m12346b6b48" y="492.48"/>
     <use style="stroke:#000000;" x="470.469421" xlink:href="#m12346b6b48" y="492.48"/>
     <use style="stroke:#000000;" x="476.618182" xlink:href="#m12346b6b48" y="492.48"/>
     <use style="stroke:#000000;" x="482.766942" xlink:href="#m12346b6b48" y="492.48"/>
     <use style="stroke:#000000;" x="488.915702" xlink:href="#m12346b6b48" y="492.48"/>
     <use style="stroke:#000000;" x="495.064463" xlink:href="#m12346b6b48" y="492.48"/>
     <use style="stroke:#000000;" x="501.213223" xlink:href="#m12346b6b48" y="492.48"/>
     <use style="stroke:#000000;" x="507.361983" xlink:href="#m12346b6b48" y="492.48"/>
     <use style="stroke:#000000;" x="513.510744" xlink:href="#m12346b6b48" y="492.48"/>
     <use style="stroke:#000000;" x="519.659504" xlink:href="#m12346b6b48" y="492.48"/>
     <use style="stroke:#000000;" x="525.808264" xlink:href="#m12346b6b48" y="492.48"/>
     <use style="stroke:#000000;" x="531.957025" xlink:href="#m12346b6b48" y="492.48"/>
     <use style="stroke:#000000;" x="538.105785" xlink:href="#m12346b6b48" y="492.48"/>
     <use style="stroke:#000000;" x="544.254545" xlink:href="#m12346b6b48" y="492.48"/>
     <use style="stroke:#000000;" x="550.403306" xlink:href="#m12346b6b48" y="492.48"/>
     <use style="stroke:#000000;" x="556.552066" xlink:href="#m12346b6b48" y="492.48"/>
     <use style="stroke:#000000;" x="562.700826" xlink:href="#m12346b6b48" y="492.48"/>
     <use style="stroke:#000000;" x="568.849587" xlink:href="#m12346b6b48" y="492.48"/>
     <use style="stroke:#000000;" x="574.998347" xlink:href="#m12346b6b48" y="492.48"/>
     <use style="stroke:#000000;" x="581.147107" xlink:href="#m12346b6b48" y="492.48"/>
     <use style="stroke:#000000;" x="587.295868" xlink:href="#m12346b6b48" y="492.48"/>
     <use style="stroke:#000000;" x="593.444628" xlink:href="#m12346b6b48" y="492.48"/>
     <use style="stroke:#000000;" x="599.593388" xlink:href="#m12346b6b48" y="492.48"/>
     <use style="stroke:#000000;" x="605.742149" xlink:href="#m12346b6b48" y="492.48"/>
     <use style="stroke:#000000;" x="611.890909" xlink:href="#m12346b6b48" y="492.48"/>
     <use style="stroke:#000000;" x="618.039669" xlink:href="#m12346b6b48" y="492.48"/>
     <use style="stroke:#000000;" x="624.18843" xlink:href="#m12346b6b48" y="492.48"/>
     <use style="stroke:#000000;" x="630.33719" xlink:href="#m12346b6b48" y="492.48"/>
     <use style="stroke:#000000;" x="636.48595" xlink:href="#m12346b6b48" y="492.48"/>
     <use style="stroke:#000000;" x="642.634711" xlink:href="#m12346b6b48" y="492.48"/>
     <use style="stroke:#000000;" x="648.783471" xlink:href="#m12346b6b48" y="492.48"/>
     <use style="stroke:#000000;" x="654.932231" xlink:href="#m12346b6b48" y="492.48"/>
     <use style="stroke:#000000;" x="661.080992" xlink:href="#m12346b6b48" y="492.48"/>
     <use style="stroke:#000000;" x="667.229752" xlink:href="#m12346b6b48" y="492.48"/>
     <use style="stroke:#000000;" x="673.378512" xlink:href="#m12346b6b48" y="492.48"/>
     <use style="stroke:#000000;" x="679.527273" xlink:href="#m12346b6b48" y="492.48"/>
     <use style="stroke:#000000;" x="685.676033" xlink:href="#m12346b6b48" y="492.48"/>
     <use style="stroke:#000000;" x="691.824793" xlink:href="#m12346b6b48" y="492.48"/>
     <use style="stroke:#000000;" x="697.973554" xlink:href="#m12346b6b48" y="492.48"/>
     <use style="stroke:#000000;" x="704.122314" xlink:href="#m12346b6b48" y="492.48"/>
     <use style="stroke:#000000;" x="710.271074" xlink:href="#m12346b6b48" y="492.48"/>
     <use style="stroke:#000000;" x="716.419835" xlink:href="#m12346b6b48" y="492.48"/>
     <use style="stroke:#000000;" x="722.568595" xlink:href="#m12346b6b48" y="492.48"/>
     <use style="stroke:#000000;" x="728.717355" xlink:href="#m12346b6b48" y="492.48"/>
     <use style="stroke:#000000;" x="734.866116" xlink:href="#m12346b6b48" y="492.48"/>
     <use style="stroke:#000000;" x="741.014876" xlink:href="#m12346b6b48" y="492.48"/>
     <use style="stroke:#000000;" x="747.163636" xlink:href="#m12346b6b48" y="492.48"/>
    </g>
   </g>
   <g id="line2d_17">
    <defs>
     <path d="M 0 3 
C 0.795609 3 1.55874 2.683901 2.12132 2.12132 
C 2.683901 1.55874 3 0.795609 3 0 
C 3 -0.795609 2.683901 -1.55874 2.12132 -2.12132 
C 1.55874 -2.683901 0.795609 -3 0 -3 
C -0.795609 -3 -1.55874 -2.683901 -2.12132 -2.12132 
C -2.683901 -1.55874 -3 -0.795609 -3 0 
C -3 0.795609 -2.683901 1.55874 -2.12132 2.12132 
C -1.55874 2.683901 -0.795609 3 0 3 
z
" id="md1bfd30e73" style="stroke:#008000;"/>
    </defs>
    <g clip-path="url(#pe77bd5ffcc)">
     <use style="fill:#008000;stroke:#008000;" x="138.436364" xlink:href="#md1bfd30e73" y="89.28"/>
     <use style="fill:#008000;stroke:#008000;" x="144.585124" xlink:href="#md1bfd30e73" y="89.28"/>
     <use style="fill:#008000;stroke:#008000;" x="150.733884" xlink:href="#md1bfd30e73" y="89.28"/>
     <use style="fill:#008000;stroke:#008000;" x="156.882645" xlink:href="#md1bfd30e73" y="89.28"/>
     <use style="fill:#008000;stroke:#008000;" x="163.031405" xlink:href="#md1bfd30e73" y="89.28"/>
     <use style="fill:#008000;stroke:#008000;" x="169.180165" xlink:href="#md1bfd30e73" y="89.28"/>
     <use style="fill:#008000;stroke:#008000;" x="175.328926" xlink:href="#md1bfd30e73" y="89.28"/>
     <use style="fill:#008000;stroke:#008000;" x="181.477686" xlink:href="#md1bfd30e73" y="89.28"/>
     <use style="fill:#008000;stroke:#008000;" x="187.626446" xlink:href="#md1bfd30e73" y="89.28"/>
     <use style="fill:#008000;stroke:#008000;" x="193.775207" xlink:href="#md1bfd30e73" y="89.28"/>
     <use style="fill:#008000;stroke:#008000;" x="199.923967" xlink:href="#md1bfd30e73" y="89.28"/>
     <use style="fill:#008000;stroke:#008000;" x="206.072727" xlink:href="#md1bfd30e73" y="89.28"/>
     <use style="fill:#008000;stroke:#008000;" x="212.221488" xlink:href="#md1bfd30e73" y="89.28"/>
     <use style="fill:#008000;stroke:#008000;" x="218.370248" xlink:href="#md1bfd30e73" y="89.28"/>
     <use style="fill:#008000;stroke:#008000;" x="224.519008" xlink:href="#md1bfd30e73" y="89.28"/>
     <use style="fill:#008000;stroke:#008000;" x="230.667769" xlink:href="#md1bfd30e73" y="89.28"/>
     <use style="fill:#008000;stroke:#008000;" x="236.816529" xlink:href="#md1bfd30e73" y="89.28"/>
     <use style="fill:#008000;stroke:#008000;" x="242.965289" xlink:href="#md1bfd30e73" y="89.28"/>
     <use style="fill:#008000;stroke:#008000;" x="249.11405" xlink:href="#md1bfd30e73" y="89.28"/>
     <use style="fill:#008000;stroke:#008000;" x="255.26281" xlink:href="#md1bfd30e73" y="89.28"/>
     <use style="fill:#008000;stroke:#008000;" x="261.41157" xlink:href="#md1bfd30e73" y="89.28"/>
     <use style="fill:#008000;stroke:#008000;" x="267.560331" xlink:href="#md1bfd30e73" y="89.28"/>
     <use style="fill:#008000;stroke:#008000;" x="273.709091" xlink:href="#md1bfd30e73" y="89.28"/>
     <use style="fill:#008000;stroke:#008000;" x="279.857851" xlink:href="#md1bfd30e73" y="89.28"/>
     <use style="fill:#008000;stroke:#008000;" x="286.006612" xlink:href="#md1bfd30e73" y="89.28"/>
     <use style="fill:#008000;stroke:#008000;" x="292.155372" xlink:href="#md1bfd30e73" y="89.28"/>
     <use style="fill:#008000;stroke:#008000;" x="298.304132" xlink:href="#md1bfd30e73" y="89.28"/>
     <use style="fill:#008000;stroke:#008000;" x="304.452893" xlink:href="#md1bfd30e73" y="89.28"/>
     <use style="fill:#008000;stroke:#008000;" x="310.601653" xlink:href="#md1bfd30e73" y="89.28"/>
     <use style="fill:#008000;stroke:#008000;" x="316.750413" xlink:href="#md1bfd30e73" y="89.28"/>
     <use style="fill:#008000;stroke:#008000;" x="322.899174" xlink:href="#md1bfd30e73" y="89.28"/>
     <use style="fill:#008000;stroke:#008000;" x="329.047934" xlink:href="#md1bfd30e73" y="89.28"/>
     <use style="fill:#008000;stroke:#008000;" x="335.196694" xlink:href="#md1bfd30e73" y="89.28"/>
     <use style="fill:#008000;stroke:#008000;" x="341.345455" xlink:href="#md1bfd30e73" y="89.28"/>
     <use style="fill:#008000;stroke:#008000;" x="347.494215" xlink:href="#md1bfd30e73" y="89.28"/>
     <use style="fill:#008000;stroke:#008000;" x="353.642975" xlink:href="#md1bfd30e73" y="89.28"/>
     <use style="fill:#008000;stroke:#008000;" x="359.791736" xlink:href="#md1bfd30e73" y="89.28"/>
     <use style="fill:#008000;stroke:#008000;" x="365.940496" xlink:href="#md1bfd30e73" y="89.28"/>
     <use style="fill:#008000;stroke:#008000;" x="372.089256" xlink:href="#md1bfd30e73" y="89.28"/>
     <use style="fill:#008000;stroke:#008000;" x="378.238017" xlink:href="#md1bfd30e73" y="89.28"/>
     <use style="fill:#008000;stroke:#008000;" x="384.386777" xlink:href="#md1bfd30e73" y="89.28"/>
     <use style="fill:#008000;stroke:#008000;" x="390.535537" xlink:href="#md1bfd30e73" y="89.28"/>
     <use style="fill:#008000;stroke:#008000;" x="396.684298" xlink:href="#md1bfd30e73" y="89.28"/>
     <use style="fill:#008000;stroke:#008000;" x="402.833058" xlink:href="#md1bfd30e73" y="89.28"/>
     <use style="fill:#008000;stroke:#008000;" x="408.981818" xlink:href="#md1bfd30e73" y="89.28"/>
     <use style="fill:#008000;stroke:#008000;" x="415.130579" xlink:href="#md1bfd30e73" y="89.28"/>
     <use style="fill:#008000;stroke:#008000;" x="421.279339" xlink:href="#md1bfd30e73" y="89.28"/>
     <use style="fill:#008000;stroke:#008000;" x="427.428099" xlink:href="#md1bfd30e73" y="89.28"/>
     <use style="fill:#008000;stroke:#008000;" x="433.57686" xlink:href="#md1bfd30e73" y="89.28"/>
     <use style="fill:#008000;stroke:#008000;" x="439.72562" xlink:href="#md1bfd30e73" y="89.28"/>
     <use style="fill:#008000;stroke:#008000;" x="445.87438" xlink:href="#md1bfd30e73" y="89.28"/>
     <use style="fill:#008000;stroke:#008000;" x="452.02314" xlink:href="#md1bfd30e73" y="89.28"/>
     <use style="fill:#008000;stroke:#008000;" x="458.171901" xlink:href="#md1bfd30e73" y="89.28"/>
     <use style="fill:#008000;stroke:#008000;" x="464.320661" xlink:href="#md1bfd30e73" y="89.28"/>
     <use style="fill:#008000;stroke:#008000;" x="470.469421" xlink:href="#md1bfd30e73" y="89.28"/>
     <use style="fill:#008000;stroke:#008000;" x="476.618182" xlink:href="#md1bfd30e73" y="89.28"/>
     <use style="fill:#008000;stroke:#008000;" x="482.766942" xlink:href="#md1bfd30e73" y="89.28"/>
     <use style="fill:#008000;stroke:#008000;" x="488.915702" xlink:href="#md1bfd30e73" y="89.28"/>
     <use style="fill:#008000;stroke:#008000;" x="495.064463" xlink:href="#md1bfd30e73" y="89.28"/>
     <use style="fill:#008000;stroke:#008000;" x="501.213223" xlink:href="#md1bfd30e73" y="89.28"/>
     <use style="fill:#008000;stroke:#008000;" x="507.361983" xlink:href="#md1bfd30e73" y="89.28"/>
     <use style="fill:#008000;stroke:#008000;" x="513.510744" xlink:href="#md1bfd30e73" y="89.28"/>
     <use style="fill:#008000;stroke:#008000;" x="519.659504" xlink:href="#md1bfd30e73" y="89.28"/>
     <use style="fill:#008000;stroke:#008000;" x="525.808264" xlink:href="#md1bfd30e73" y="89.28"/>
     <use style="fill:#008000;stroke:#008000;" x="531.957025" xlink:href="#md1bfd30e73" y="89.28"/>
     <use style="fill:#008000;stroke:#008000;" x="538.105785" xlink:href="#md1bfd30e73" y="89.28"/>
     <use style="fill:#008000;stroke:#008000;" x="544.254545" xlink:href="#md1bfd30e73" y="89.28"/>
     <use style="fill:#008000;stroke:#008000;" x="550.403306" xlink:href="#md1bfd30e73" y="89.28"/>
     <use style="fill:#008000;stroke:#008000;" x="556.552066" xlink:href="#md1bfd30e73" y="89.28"/>
     <use style="fill:#008000;stroke:#008000;" x="562.700826" xlink:href="#md1bfd30e73" y="89.28"/>
     <use style="fill:#008000;stroke:#008000;" x="568.849587" xlink:href="#md1bfd30e73" y="89.28"/>
     <use style="fill:#008000;stroke:#008000;" x="574.998347" xlink:href="#md1bfd30e73" y="89.28"/>
     <use style="fill:#008000;stroke:#008000;" x="581.147107" xlink:href="#md1bfd30e73" y="89.28"/>
     <use style="fill:#008000;stroke:#008000;" x="587.295868" xlink:href="#md1bfd30e73" y="89.28"/>
     <use style="fill:#008000;stroke:#008000;" x="593.444628" xlink:href="#md1bfd30e73" y="89.28"/>
     <use style="fill:#008000;stroke:#008000;" x="599.593388" xlink:href="#md1bfd30e73" y="89.28"/>
     <use style="fill:#008000;stroke:#008000;" x="605.742149" xlink:href="#md1bfd30e73" y="89.28"/>
     <use style="fill:#008000;stroke:#008000;" x="611.890909" xlink:href="#md1bfd30e73" y="89.28"/>
     <use style="fill:#008000;stroke:#008000;" x="618.039669" xlink:href="#md1bfd30e73" y="89.28"/>
     <use style="fill:#008000;stroke:#008000;" x="624.18843" xlink:href="#md1bfd30e73" y="89.28"/>
     <use style="fill:#008000;stroke:#008000;" x="630.33719" xlink:href="#md1bfd30e73" y="89.28"/>
     <use style="fill:#008000;stroke:#008000;" x="636.48595" xlink:href="#md1bfd30e73" y="89.28"/>
     <use style="fill:#008000;stroke:#008000;" x="642.634711" xlink:href="#md1bfd30e73" y="89.28"/>
     <use style="fill:#008000;stroke:#008000;" x="648.783471" xlink:href="#md1bfd30e73" y="89.28"/>
     <use style="fill:#008000;stroke:#008000;" x="654.932231" xlink:href="#md1bfd30e73" y="89.28"/>
     <use style="fill:#008000;stroke:#008000;" x="661.080992" xlink:href="#md1bfd30e73" y="89.28"/>
     <use style="fill:#008000;stroke:#008000;" x="667.229752" xlink:href="#md1bfd30e73" y="89.28"/>
     <use style="fill:#008000;stroke:#008000;" x="673.378512" xlink:href="#md1bfd30e73" y="89.28"/>
     <use style="fill:#008000;stroke:#008000;" x="679.527273" xlink:href="#md1bfd30e73" y="89.28"/>
     <use style="fill:#008000;stroke:#008000;" x="685.676033" xlink:href="#md1bfd30e73" y="89.28"/>
     <use style="fill:#008000;stroke:#008000;" x="691.824793" xlink:href="#md1bfd30e73" y="89.28"/>
     <use style="fill:#008000;stroke:#008000;" x="697.973554" xlink:href="#md1bfd30e73" y="89.28"/>
     <use style="fill:#008000;stroke:#008000;" x="704.122314" xlink:href="#md1bfd30e73" y="89.28"/>
     <use style="fill:#008000;stroke:#008000;" x="710.271074" xlink:href="#md1bfd30e73" y="89.28"/>
     <use style="fill:#008000;stroke:#008000;" x="716.419835" xlink:href="#md1bfd30e73" y="89.28"/>
     <use style="fill:#008000;stroke:#008000;" x="722.568595" xlink:href="#md1bfd30e73" y="89.28"/>
     <use style="fill:#008000;stroke:#008000;" x="728.717355" xlink:href="#md1bfd30e73" y="89.28"/>
     <use style="fill:#008000;stroke:#008000;" x="734.866116" xlink:href="#md1bfd30e73" y="89.28"/>
     <use style="fill:#008000;stroke:#008000;" x="741.014876" xlink:href="#md1bfd30e73" y="89.28"/>
     <use style="fill:#008000;stroke:#008000;" x="747.163636" xlink:href="#md1bfd30e73" y="89.28"/>
    </g>
   </g>
   <g id="line2d_18">
    <defs>
     <path d="M 0 3 
C 0.795609 3 1.55874 2.683901 2.12132 2.12132 
C 2.683901 1.55874 3 0.795609 3 0 
C 3 -0.795609 2.683901 -1.55874 2.12132 -2.12132 
C 1.55874 -2.683901 0.795609 -3 0 -3 
C -0.795609 -3 -1.55874 -2.683901 -2.12132 -2.12132 
C -2.683901 -1.55874 -3 -0.795609 -3 0 
C -3 0.795609 -2.683901 1.55874 -2.12132 2.12132 
C -1.55874 2.683901 -0.795609 3 0 3 
z
" id="m048a3ed3bd" style="stroke:#0000ff;"/>
    </defs>
    <g clip-path="url(#pe77bd5ffcc)">
     <use style="fill:#0000ff;stroke:#0000ff;" x="138.436364" xlink:href="#m048a3ed3bd" y="478.221975"/>
     <use style="fill:#0000ff;stroke:#0000ff;" x="144.585124" xlink:href="#m048a3ed3bd" y="478.221975"/>
     <use style="fill:#0000ff;stroke:#0000ff;" x="150.733884" xlink:href="#m048a3ed3bd" y="478.221975"/>
     <use style="fill:#0000ff;stroke:#0000ff;" x="156.882645" xlink:href="#m048a3ed3bd" y="478.221975"/>
     <use style="fill:#0000ff;stroke:#0000ff;" x="163.031405" xlink:href="#m048a3ed3bd" y="478.221975"/>
     <use style="fill:#0000ff;stroke:#0000ff;" x="169.180165" xlink:href="#m048a3ed3bd" y="478.221975"/>
     <use style="fill:#0000ff;stroke:#0000ff;" x="175.328926" xlink:href="#m048a3ed3bd" y="478.221975"/>
     <use style="fill:#0000ff;stroke:#0000ff;" x="181.477686" xlink:href="#m048a3ed3bd" y="478.221975"/>
     <use style="fill:#0000ff;stroke:#0000ff;" x="187.626446" xlink:href="#m048a3ed3bd" y="478.221975"/>
     <use style="fill:#0000ff;stroke:#0000ff;" x="193.775207" xlink:href="#m048a3ed3bd" y="478.221975"/>
     <use style="fill:#0000ff;stroke:#0000ff;" x="199.923967" xlink:href="#m048a3ed3bd" y="478.221975"/>
     <use style="fill:#0000ff;stroke:#0000ff;" x="206.072727" xlink:href="#m048a3ed3bd" y="478.221975"/>
     <use style="fill:#0000ff;stroke:#0000ff;" x="212.221488" xlink:href="#m048a3ed3bd" y="478.221975"/>
     <use style="fill:#0000ff;stroke:#0000ff;" x="218.370248" xlink:href="#m048a3ed3bd" y="478.221975"/>
     <use style="fill:#0000ff;stroke:#0000ff;" x="224.519008" xlink:href="#m048a3ed3bd" y="478.221975"/>
     <use style="fill:#0000ff;stroke:#0000ff;" x="230.667769" xlink:href="#m048a3ed3bd" y="478.221975"/>
     <use style="fill:#0000ff;stroke:#0000ff;" x="236.816529" xlink:href="#m048a3ed3bd" y="478.221975"/>
     <use style="fill:#0000ff;stroke:#0000ff;" x="242.965289" xlink:href="#m048a3ed3bd" y="478.221975"/>
     <use style="fill:#0000ff;stroke:#0000ff;" x="249.11405" xlink:href="#m048a3ed3bd" y="478.221975"/>
     <use style="fill:#0000ff;stroke:#0000ff;" x="255.26281" xlink:href="#m048a3ed3bd" y="478.221975"/>
     <use style="fill:#0000ff;stroke:#0000ff;" x="261.41157" xlink:href="#m048a3ed3bd" y="478.221975"/>
     <use style="fill:#0000ff;stroke:#0000ff;" x="267.560331" xlink:href="#m048a3ed3bd" y="478.221975"/>
     <use style="fill:#0000ff;stroke:#0000ff;" x="273.709091" xlink:href="#m048a3ed3bd" y="478.221975"/>
     <use style="fill:#0000ff;stroke:#0000ff;" x="279.857851" xlink:href="#m048a3ed3bd" y="478.221975"/>
     <use style="fill:#0000ff;stroke:#0000ff;" x="286.006612" xlink:href="#m048a3ed3bd" y="478.221975"/>
     <use style="fill:#0000ff;stroke:#0000ff;" x="292.155372" xlink:href="#m048a3ed3bd" y="478.221975"/>
     <use style="fill:#0000ff;stroke:#0000ff;" x="298.304132" xlink:href="#m048a3ed3bd" y="478.221975"/>
     <use style="fill:#0000ff;stroke:#0000ff;" x="304.452893" xlink:href="#m048a3ed3bd" y="478.221975"/>
     <use style="fill:#0000ff;stroke:#0000ff;" x="310.601653" xlink:href="#m048a3ed3bd" y="478.221975"/>
     <use style="fill:#0000ff;stroke:#0000ff;" x="316.750413" xlink:href="#m048a3ed3bd" y="478.221975"/>
     <use style="fill:#0000ff;stroke:#0000ff;" x="322.899174" xlink:href="#m048a3ed3bd" y="478.221975"/>
     <use style="fill:#0000ff;stroke:#0000ff;" x="329.047934" xlink:href="#m048a3ed3bd" y="478.221975"/>
     <use style="fill:#0000ff;stroke:#0000ff;" x="335.196694" xlink:href="#m048a3ed3bd" y="478.221975"/>
     <use style="fill:#0000ff;stroke:#0000ff;" x="341.345455" xlink:href="#m048a3ed3bd" y="478.221975"/>
     <use style="fill:#0000ff;stroke:#0000ff;" x="347.494215" xlink:href="#m048a3ed3bd" y="478.221975"/>
     <use style="fill:#0000ff;stroke:#0000ff;" x="353.642975" xlink:href="#m048a3ed3bd" y="478.221975"/>
     <use style="fill:#0000ff;stroke:#0000ff;" x="359.791736" xlink:href="#m048a3ed3bd" y="478.221975"/>
     <use style="fill:#0000ff;stroke:#0000ff;" x="365.940496" xlink:href="#m048a3ed3bd" y="478.221975"/>
     <use style="fill:#0000ff;stroke:#0000ff;" x="372.089256" xlink:href="#m048a3ed3bd" y="478.221975"/>
     <use style="fill:#0000ff;stroke:#0000ff;" x="378.238017" xlink:href="#m048a3ed3bd" y="478.221975"/>
     <use style="fill:#0000ff;stroke:#0000ff;" x="384.386777" xlink:href="#m048a3ed3bd" y="478.221975"/>
     <use style="fill:#0000ff;stroke:#0000ff;" x="390.535537" xlink:href="#m048a3ed3bd" y="478.221975"/>
     <use style="fill:#0000ff;stroke:#0000ff;" x="396.684298" xlink:href="#m048a3ed3bd" y="478.221975"/>
     <use style="fill:#0000ff;stroke:#0000ff;" x="402.833058" xlink:href="#m048a3ed3bd" y="478.221975"/>
     <use style="fill:#0000ff;stroke:#0000ff;" x="408.981818" xlink:href="#m048a3ed3bd" y="478.221975"/>
     <use style="fill:#0000ff;stroke:#0000ff;" x="415.130579" xlink:href="#m048a3ed3bd" y="478.221975"/>
     <use style="fill:#0000ff;stroke:#0000ff;" x="421.279339" xlink:href="#m048a3ed3bd" y="478.221975"/>
     <use style="fill:#0000ff;stroke:#0000ff;" x="427.428099" xlink:href="#m048a3ed3bd" y="478.221975"/>
     <use style="fill:#0000ff;stroke:#0000ff;" x="433.57686" xlink:href="#m048a3ed3bd" y="478.221975"/>
     <use style="fill:#0000ff;stroke:#0000ff;" x="439.72562" xlink:href="#m048a3ed3bd" y="478.221975"/>
     <use style="fill:#0000ff;stroke:#0000ff;" x="445.87438" xlink:href="#m048a3ed3bd" y="478.221975"/>
     <use style="fill:#0000ff;stroke:#0000ff;" x="452.02314" xlink:href="#m048a3ed3bd" y="478.221975"/>
     <use style="fill:#0000ff;stroke:#0000ff;" x="458.171901" xlink:href="#m048a3ed3bd" y="478.221975"/>
     <use style="fill:#0000ff;stroke:#0000ff;" x="464.320661" xlink:href="#m048a3ed3bd" y="478.221975"/>
     <use style="fill:#0000ff;stroke:#0000ff;" x="470.469421" xlink:href="#m048a3ed3bd" y="478.221975"/>
     <use style="fill:#0000ff;stroke:#0000ff;" x="476.618182" xlink:href="#m048a3ed3bd" y="478.221975"/>
     <use style="fill:#0000ff;stroke:#0000ff;" x="482.766942" xlink:href="#m048a3ed3bd" y="478.221975"/>
     <use style="fill:#0000ff;stroke:#0000ff;" x="488.915702" xlink:href="#m048a3ed3bd" y="478.221975"/>
     <use style="fill:#0000ff;stroke:#0000ff;" x="495.064463" xlink:href="#m048a3ed3bd" y="478.221975"/>
     <use style="fill:#0000ff;stroke:#0000ff;" x="501.213223" xlink:href="#m048a3ed3bd" y="478.221975"/>
     <use style="fill:#0000ff;stroke:#0000ff;" x="507.361983" xlink:href="#m048a3ed3bd" y="478.221975"/>
     <use style="fill:#0000ff;stroke:#0000ff;" x="513.510744" xlink:href="#m048a3ed3bd" y="478.221975"/>
     <use style="fill:#0000ff;stroke:#0000ff;" x="519.659504" xlink:href="#m048a3ed3bd" y="478.221975"/>
     <use style="fill:#0000ff;stroke:#0000ff;" x="525.808264" xlink:href="#m048a3ed3bd" y="478.221975"/>
     <use style="fill:#0000ff;stroke:#0000ff;" x="531.957025" xlink:href="#m048a3ed3bd" y="478.221975"/>
     <use style="fill:#0000ff;stroke:#0000ff;" x="538.105785" xlink:href="#m048a3ed3bd" y="478.221975"/>
     <use style="fill:#0000ff;stroke:#0000ff;" x="544.254545" xlink:href="#m048a3ed3bd" y="478.221975"/>
     <use style="fill:#0000ff;stroke:#0000ff;" x="550.403306" xlink:href="#m048a3ed3bd" y="478.221975"/>
     <use style="fill:#0000ff;stroke:#0000ff;" x="556.552066" xlink:href="#m048a3ed3bd" y="478.221975"/>
     <use style="fill:#0000ff;stroke:#0000ff;" x="562.700826" xlink:href="#m048a3ed3bd" y="478.221975"/>
     <use style="fill:#0000ff;stroke:#0000ff;" x="568.849587" xlink:href="#m048a3ed3bd" y="478.221975"/>
     <use style="fill:#0000ff;stroke:#0000ff;" x="574.998347" xlink:href="#m048a3ed3bd" y="478.221975"/>
     <use style="fill:#0000ff;stroke:#0000ff;" x="581.147107" xlink:href="#m048a3ed3bd" y="478.221975"/>
     <use style="fill:#0000ff;stroke:#0000ff;" x="587.295868" xlink:href="#m048a3ed3bd" y="478.221975"/>
     <use style="fill:#0000ff;stroke:#0000ff;" x="593.444628" xlink:href="#m048a3ed3bd" y="478.221975"/>
     <use style="fill:#0000ff;stroke:#0000ff;" x="599.593388" xlink:href="#m048a3ed3bd" y="478.221975"/>
     <use style="fill:#0000ff;stroke:#0000ff;" x="605.742149" xlink:href="#m048a3ed3bd" y="478.221975"/>
     <use style="fill:#0000ff;stroke:#0000ff;" x="611.890909" xlink:href="#m048a3ed3bd" y="478.221975"/>
     <use style="fill:#0000ff;stroke:#0000ff;" x="618.039669" xlink:href="#m048a3ed3bd" y="478.221975"/>
     <use style="fill:#0000ff;stroke:#0000ff;" x="624.18843" xlink:href="#m048a3ed3bd" y="478.221975"/>
     <use style="fill:#0000ff;stroke:#0000ff;" x="630.33719" xlink:href="#m048a3ed3bd" y="478.221975"/>
     <use style="fill:#0000ff;stroke:#0000ff;" x="636.48595" xlink:href="#m048a3ed3bd" y="478.221975"/>
     <use style="fill:#0000ff;stroke:#0000ff;" x="642.634711" xlink:href="#m048a3ed3bd" y="478.221975"/>
     <use style="fill:#0000ff;stroke:#0000ff;" x="648.783471" xlink:href="#m048a3ed3bd" y="478.221975"/>
     <use style="fill:#0000ff;stroke:#0000ff;" x="654.932231" xlink:href="#m048a3ed3bd" y="478.221975"/>
     <use style="fill:#0000ff;stroke:#0000ff;" x="661.080992" xlink:href="#m048a3ed3bd" y="478.221975"/>
     <use style="fill:#0000ff;stroke:#0000ff;" x="667.229752" xlink:href="#m048a3ed3bd" y="478.221975"/>
     <use style="fill:#0000ff;stroke:#0000ff;" x="673.378512" xlink:href="#m048a3ed3bd" y="478.221975"/>
     <use style="fill:#0000ff;stroke:#0000ff;" x="679.527273" xlink:href="#m048a3ed3bd" y="478.221975"/>
     <use style="fill:#0000ff;stroke:#0000ff;" x="685.676033" xlink:href="#m048a3ed3bd" y="478.221975"/>
     <use style="fill:#0000ff;stroke:#0000ff;" x="691.824793" xlink:href="#m048a3ed3bd" y="478.221975"/>
     <use style="fill:#0000ff;stroke:#0000ff;" x="697.973554" xlink:href="#m048a3ed3bd" y="478.221975"/>
     <use style="fill:#0000ff;stroke:#0000ff;" x="704.122314" xlink:href="#m048a3ed3bd" y="478.221975"/>
     <use style="fill:#0000ff;stroke:#0000ff;" x="710.271074" xlink:href="#m048a3ed3bd" y="478.221975"/>
     <use style="fill:#0000ff;stroke:#0000ff;" x="716.419835" xlink:href="#m048a3ed3bd" y="478.221975"/>
     <use style="fill:#0000ff;stroke:#0000ff;" x="722.568595" xlink:href="#m048a3ed3bd" y="478.221975"/>
     <use style="fill:#0000ff;stroke:#0000ff;" x="728.717355" xlink:href="#m048a3ed3bd" y="478.221975"/>
     <use style="fill:#0000ff;stroke:#0000ff;" x="734.866116" xlink:href="#m048a3ed3bd" y="478.221975"/>
     <use style="fill:#0000ff;stroke:#0000ff;" x="741.014876" xlink:href="#m048a3ed3bd" y="478.221975"/>
     <use style="fill:#0000ff;stroke:#0000ff;" x="747.163636" xlink:href="#m048a3ed3bd" y="478.221975"/>
    </g>
   </g>
   <g id="patch_3">
    <path d="M 108 512.64 
L 108 69.12 
" style="fill:none;stroke:#000000;stroke-linecap:square;stroke-linejoin:miter;stroke-width:0.8;"/>
   </g>
   <g id="patch_4">
    <path d="M 777.6 512.64 
L 777.6 69.12 
" style="fill:none;stroke:#000000;stroke-linecap:square;stroke-linejoin:miter;stroke-width:0.8;"/>
   </g>
   <g id="patch_5">
    <path d="M 108 512.64 
L 777.6 512.64 
" style="fill:none;stroke:#000000;stroke-linecap:square;stroke-linejoin:miter;stroke-width:0.8;"/>
   </g>
   <g id="patch_6">
    <path d="M 108 69.12 
L 777.6 69.12 
" style="fill:none;stroke:#000000;stroke-linecap:square;stroke-linejoin:miter;stroke-width:0.8;"/>
   </g>
   <g id="text_18">
    <!-- Graphene/Copper/Graphene -->
    <g transform="translate(357.939375 63.12)scale(0.12 -0.12)">
     <defs>
      <path d="M 59.515625 10.40625 
L 59.515625 29.984375 
L 43.40625 29.984375 
L 43.40625 38.09375 
L 69.28125 38.09375 
L 69.28125 6.78125 
Q 63.578125 2.734375 56.6875 0.65625 
Q 49.8125 -1.421875 42 -1.421875 
Q 24.90625 -1.421875 15.25 8.5625 
Q 5.609375 18.5625 5.609375 36.375 
Q 5.609375 54.25 15.25 64.234375 
Q 24.90625 74.21875 42 74.21875 
Q 49.125 74.21875 55.546875 72.453125 
Q 61.96875 70.703125 67.390625 67.28125 
L 67.390625 56.78125 
Q 61.921875 61.421875 55.765625 63.765625 
Q 49.609375 66.109375 42.828125 66.109375 
Q 29.4375 66.109375 22.71875 58.640625 
Q 16.015625 51.171875 16.015625 36.375 
Q 16.015625 21.625 22.71875 14.15625 
Q 29.4375 6.6875 42.828125 6.6875 
Q 48.046875 6.6875 52.140625 7.59375 
Q 56.25 8.5 59.515625 10.40625 
z
" id="DejaVuSans-71"/>
      <path d="M 54.890625 33.015625 
L 54.890625 0 
L 45.90625 0 
L 45.90625 32.71875 
Q 45.90625 40.484375 42.875 44.328125 
Q 39.84375 48.1875 33.796875 48.1875 
Q 26.515625 48.1875 22.3125 43.546875 
Q 18.109375 38.921875 18.109375 30.90625 
L 18.109375 0 
L 9.078125 0 
L 9.078125 75.984375 
L 18.109375 75.984375 
L 18.109375 46.1875 
Q 21.34375 51.125 25.703125 53.5625 
Q 30.078125 56 35.796875 56 
Q 45.21875 56 50.046875 50.171875 
Q 54.890625 44.34375 54.890625 33.015625 
z
" id="DejaVuSans-104"/>
      <path d="M 25.390625 72.90625 
L 33.6875 72.90625 
L 8.296875 -9.28125 
L 0 -9.28125 
z
" id="DejaVuSans-47"/>
      <path d="M 64.40625 67.28125 
L 64.40625 56.890625 
Q 59.421875 61.53125 53.78125 63.8125 
Q 48.140625 66.109375 41.796875 66.109375 
Q 29.296875 66.109375 22.65625 58.46875 
Q 16.015625 50.828125 16.015625 36.375 
Q 16.015625 21.96875 22.65625 14.328125 
Q 29.296875 6.6875 41.796875 6.6875 
Q 48.140625 6.6875 53.78125 8.984375 
Q 59.421875 11.28125 64.40625 15.921875 
L 64.40625 5.609375 
Q 59.234375 2.09375 53.4375 0.328125 
Q 47.65625 -1.421875 41.21875 -1.421875 
Q 24.65625 -1.421875 15.125 8.703125 
Q 5.609375 18.84375 5.609375 36.375 
Q 5.609375 53.953125 15.125 64.078125 
Q 24.65625 74.21875 41.21875 74.21875 
Q 47.75 74.21875 53.53125 72.484375 
Q 59.328125 70.75 64.40625 67.28125 
z
" id="DejaVuSans-67"/>
     </defs>
     <use xlink:href="#DejaVuSans-71"/>
     <use x="77.490234" xlink:href="#DejaVuSans-114"/>
     <use x="118.603516" xlink:href="#DejaVuSans-97"/>
     <use x="179.882812" xlink:href="#DejaVuSans-112"/>
     <use x="243.359375" xlink:href="#DejaVuSans-104"/>
     <use x="306.738281" xlink:href="#DejaVuSans-101"/>
     <use x="368.261719" xlink:href="#DejaVuSans-110"/>
     <use x="431.640625" xlink:href="#DejaVuSans-101"/>
     <use x="493.164062" xlink:href="#DejaVuSans-47"/>
     <use x="526.855469" xlink:href="#DejaVuSans-67"/>
     <use x="596.679688" xlink:href="#DejaVuSans-111"/>
     <use x="657.861328" xlink:href="#DejaVuSans-112"/>
     <use x="721.337891" xlink:href="#DejaVuSans-112"/>
     <use x="784.814453" xlink:href="#DejaVuSans-101"/>
     <use x="846.337891" xlink:href="#DejaVuSans-114"/>
     <use x="887.451172" xlink:href="#DejaVuSans-47"/>
     <use x="921.142578" xlink:href="#DejaVuSans-71"/>
     <use x="998.632812" xlink:href="#DejaVuSans-114"/>
     <use x="1039.746094" xlink:href="#DejaVuSans-97"/>
     <use x="1101.025391" xlink:href="#DejaVuSans-112"/>
     <use x="1164.501953" xlink:href="#DejaVuSans-104"/>
     <use x="1227.880859" xlink:href="#DejaVuSans-101"/>
     <use x="1289.404297" xlink:href="#DejaVuSans-110"/>
     <use x="1352.783203" xlink:href="#DejaVuSans-101"/>
    </g>
   </g>
   <g id="legend_1">
    <g id="patch_7">
     <path d="M 671.967188 314.397188 
L 770.6 314.397188 
Q 772.6 314.397188 772.6 312.397188 
L 772.6 269.362813 
Q 772.6 267.362813 770.6 267.362813 
L 671.967188 267.362813 
Q 669.967188 267.362813 669.967188 269.362813 
L 669.967188 312.397188 
Q 669.967188 314.397188 671.967188 314.397188 
z
" style="fill:#ffffff;opacity:0.8;stroke:#cccccc;stroke-linejoin:miter;"/>
    </g>
    <g id="line2d_19"/>
    <g id="line2d_20">
     <g>
      <use style="stroke:#000000;" x="683.967188" xlink:href="#m12346b6b48" y="275.46125"/>
     </g>
    </g>
    <g id="text_19">
     <!-- Without laser -->
     <g transform="translate(701.967188 278.96125)scale(0.1 -0.1)">
      <defs>
       <path d="M 3.328125 72.90625 
L 13.28125 72.90625 
L 28.609375 11.28125 
L 43.890625 72.90625 
L 54.984375 72.90625 
L 70.3125 11.28125 
L 85.59375 72.90625 
L 95.609375 72.90625 
L 77.296875 0 
L 64.890625 0 
L 49.515625 63.28125 
L 33.984375 0 
L 21.578125 0 
z
" id="DejaVuSans-87"/>
       <path d="M 9.421875 54.6875 
L 18.40625 54.6875 
L 18.40625 0 
L 9.421875 0 
z
M 9.421875 75.984375 
L 18.40625 75.984375 
L 18.40625 64.59375 
L 9.421875 64.59375 
z
" id="DejaVuSans-105"/>
       <path d="M 9.421875 75.984375 
L 18.40625 75.984375 
L 18.40625 0 
L 9.421875 0 
z
" id="DejaVuSans-108"/>
      </defs>
      <use xlink:href="#DejaVuSans-87"/>
      <use x="96.626953" xlink:href="#DejaVuSans-105"/>
      <use x="124.410156" xlink:href="#DejaVuSans-116"/>
      <use x="163.619141" xlink:href="#DejaVuSans-104"/>
      <use x="226.998047" xlink:href="#DejaVuSans-111"/>
      <use x="288.179688" xlink:href="#DejaVuSans-117"/>
      <use x="351.558594" xlink:href="#DejaVuSans-116"/>
      <use x="390.767578" xlink:href="#DejaVuSans-32"/>
      <use x="422.554688" xlink:href="#DejaVuSans-108"/>
      <use x="450.337891" xlink:href="#DejaVuSans-97"/>
      <use x="511.617188" xlink:href="#DejaVuSans-115"/>
      <use x="563.716797" xlink:href="#DejaVuSans-101"/>
      <use x="625.240234" xlink:href="#DejaVuSans-114"/>
     </g>
    </g>
    <g id="line2d_21"/>
    <g id="line2d_22">
     <g>
      <use style="fill:#008000;stroke:#008000;" x="683.967188" xlink:href="#md1bfd30e73" y="290.139375"/>
     </g>
    </g>
    <g id="text_20">
     <!-- Green laser -->
     <g transform="translate(701.967188 293.639375)scale(0.1 -0.1)">
      <use xlink:href="#DejaVuSans-71"/>
      <use x="77.490234" xlink:href="#DejaVuSans-114"/>
      <use x="116.353516" xlink:href="#DejaVuSans-101"/>
      <use x="177.876953" xlink:href="#DejaVuSans-101"/>
      <use x="239.400391" xlink:href="#DejaVuSans-110"/>
      <use x="302.779297" xlink:href="#DejaVuSans-32"/>
      <use x="334.566406" xlink:href="#DejaVuSans-108"/>
      <use x="362.349609" xlink:href="#DejaVuSans-97"/>
      <use x="423.628906" xlink:href="#DejaVuSans-115"/>
      <use x="475.728516" xlink:href="#DejaVuSans-101"/>
      <use x="537.251953" xlink:href="#DejaVuSans-114"/>
     </g>
    </g>
    <g id="line2d_23"/>
    <g id="line2d_24">
     <g>
      <use style="fill:#0000ff;stroke:#0000ff;" x="683.967188" xlink:href="#m048a3ed3bd" y="304.8175"/>
     </g>
    </g>
    <g id="text_21">
     <!-- Blue laser -->
     <g transform="translate(701.967188 308.3175)scale(0.1 -0.1)">
      <defs>
       <path d="M 19.671875 34.8125 
L 19.671875 8.109375 
L 35.5 8.109375 
Q 43.453125 8.109375 47.28125 11.40625 
Q 51.125 14.703125 51.125 21.484375 
Q 51.125 28.328125 47.28125 31.5625 
Q 43.453125 34.8125 35.5 34.8125 
z
M 19.671875 64.796875 
L 19.671875 42.828125 
L 34.28125 42.828125 
Q 41.5 42.828125 45.03125 45.53125 
Q 48.578125 48.25 48.578125 53.8125 
Q 48.578125 59.328125 45.03125 62.0625 
Q 41.5 64.796875 34.28125 64.796875 
z
M 9.8125 72.90625 
L 35.015625 72.90625 
Q 46.296875 72.90625 52.390625 68.21875 
Q 58.5 63.53125 58.5 54.890625 
Q 58.5 48.1875 55.375 44.234375 
Q 52.25 40.28125 46.1875 39.3125 
Q 53.46875 37.75 57.5 32.78125 
Q 61.53125 27.828125 61.53125 20.40625 
Q 61.53125 10.640625 54.890625 5.3125 
Q 48.25 0 35.984375 0 
L 9.8125 0 
z
" id="DejaVuSans-66"/>
      </defs>
      <use xlink:href="#DejaVuSans-66"/>
      <use x="68.603516" xlink:href="#DejaVuSans-108"/>
      <use x="96.386719" xlink:href="#DejaVuSans-117"/>
      <use x="159.765625" xlink:href="#DejaVuSans-101"/>
      <use x="221.289062" xlink:href="#DejaVuSans-32"/>
      <use x="253.076172" xlink:href="#DejaVuSans-108"/>
      <use x="280.859375" xlink:href="#DejaVuSans-97"/>
      <use x="342.138672" xlink:href="#DejaVuSans-115"/>
      <use x="394.238281" xlink:href="#DejaVuSans-101"/>
      <use x="455.761719" xlink:href="#DejaVuSans-114"/>
     </g>
    </g>
   </g>
  </g>
 </g>
 <defs>
  <clipPath id="pe77bd5ffcc">
   <rect height="443.52" width="669.6" x="108" y="69.12"/>
  </clipPath>
 </defs>
</svg>
